<svg width="62" height="14" viewBox="0 0 62 14" fill="none" xmlns="http://www.w3.org/2000/svg">
<g clip-path="url(#clip0_11022_106)">
<path d="M19.2971 2.16397C19.1839 1.74567 18.9631 1.36432 18.6567 1.05791C18.3502 0.751507 17.9689 0.530734 17.5506 0.417586C16.0191 0 9.85623 0 9.85623 0C9.85623 0 3.69309 0.0126724 2.1619 0.430259C1.74362 0.543425 1.36228 0.764206 1.05587 1.07061C0.749469 1.37702 0.528688 1.75835 0.415521 2.17664C-0.0476857 4.89759 -0.227393 9.0434 0.428194 11.6554C0.54136 12.0736 0.762141 12.455 1.06855 12.7614C1.37495 13.0678 1.75629 13.2886 2.17457 13.4017C3.70588 13.8193 9.8689 13.8193 9.8689 13.8193C9.8689 13.8193 16.0319 13.8193 17.5632 13.4017C17.9815 13.2886 18.3629 13.0678 18.6693 12.7614C18.9757 12.455 19.1964 12.0736 19.3096 11.6554C19.798 8.93067 19.9487 4.7874 19.2969 2.16409" fill="#FF0000"/>
<path d="M7.89453 9.87097L13.0072 6.90973L7.89453 3.94836V9.87097Z" fill="white"/>
<path d="M59.2869 4.01172C59.9576 4.01172 60.4637 4.13821 60.8181 4.37862C61.1724 4.61911 61.4255 4.9988 61.5774 5.51769C61.7293 6.03653 61.7925 6.7451 61.7925 7.65631V9.13705H58.5402V9.59253L58.5909 10.8454C58.6288 11.1238 58.6921 11.3264 58.7933 11.4528C58.8946 11.5794 59.059 11.6427 59.2742 11.6427C59.5653 11.6427 59.7678 11.5289 59.869 11.3011C59.9829 11.0733 60.0335 10.6936 60.0461 10.1747L61.7293 10.276C61.7419 10.3519 61.742 10.4532 61.742 10.5797C61.742 11.3769 61.5268 11.9718 61.0838 12.3641C60.6409 12.7563 60.0335 12.9588 59.2362 12.9588C58.2744 12.9588 57.6037 12.6552 57.2241 12.0604C56.8445 11.4655 56.642 10.529 56.642 9.27621V7.7449C56.6849 5.5936 57.0633 4.018 59.2869 4.01172ZM35.8876 4.17622V10.5164C35.8876 10.8961 35.9255 11.1745 36.0141 11.339C36.1938 11.6908 36.6595 11.6009 36.9126 11.4276C37.0587 11.3288 37.1764 11.1936 37.2543 11.0354V4.1761H39.1905V12.8195H37.6718L37.5073 11.7565H37.4694C37.0519 12.5538 36.4316 12.9587 35.6091 12.9587C34.3431 12.9556 34.0333 12.0434 33.9596 11.117L33.9547 11.0517C33.9456 10.9114 33.9402 10.7708 33.9387 10.6302V4.17622H35.8876ZM45.8725 4.17622V10.5164C45.8725 10.8961 45.9104 11.1745 45.9989 11.339C46.1788 11.6908 46.6444 11.6009 46.8975 11.4276C47.0436 11.3288 47.1613 11.1936 47.2392 11.0354V4.1761H49.1754V12.8195H47.6567L47.4922 11.7565H47.4543C47.0368 12.5538 46.4165 12.9587 45.594 12.9587C44.328 12.9556 44.0182 12.0434 43.9445 11.117L43.9396 11.0517C43.9305 10.9114 43.9251 10.7708 43.9236 10.6302V4.17622H45.8725ZM30.2686 4.01172C30.9014 4.01172 31.4202 4.13821 31.7999 4.40397C32.1795 4.66972 32.4706 5.07476 32.6478 5.6315C32.8249 6.18836 32.9135 6.93495 32.9135 7.85883V9.11159C32.9135 10.0355 32.8249 10.7695 32.6478 11.3262C32.4706 11.8832 32.1922 12.2881 31.7999 12.5539C31.4077 12.807 30.8761 12.9461 30.2181 12.9461C29.5346 12.9588 29.0031 12.8197 28.6108 12.5666C28.2186 12.3008 27.94 11.8958 27.7757 11.339C27.611 10.7822 27.5351 10.0481 27.5351 9.12438V7.87138C27.5351 6.9475 27.6237 6.18824 27.8136 5.63138C28.0034 5.06197 28.2944 4.65693 28.6994 4.40397C29.1043 4.15076 29.6232 4.0116 30.2686 4.0116M52.2127 0.544189V5.09998H52.2253C52.4025 4.77098 52.6302 4.50522 52.9467 4.30271C53.2422 4.10412 53.5903 3.99838 53.9464 3.99905C54.4146 3.99905 54.769 4.12553 55.0347 4.36595C55.3005 4.61915 55.4903 5.0114 55.6042 5.55559C55.7146 6.08276 55.7773 6.81184 55.7812 7.73126L55.7813 7.82093V9.18762C55.7813 10.4657 55.6168 11.4149 55.3131 12.0224C54.9968 12.6298 54.5159 12.9336 53.8578 12.9336C53.4909 12.9336 53.1618 12.845 52.8581 12.6805C52.5896 12.5239 52.3669 12.2995 52.2124 12.0297L52.1873 11.9844H52.1494L51.9469 12.807H50.3397V0.54431L52.2127 0.544189ZM44.4676 0.98712V2.55621H42.5441V12.8195H40.6459V2.55633H38.7097V0.987241L44.4676 0.98712ZM23.5993 0.98712L23.6005 0.991948C23.619 1.07414 23.8748 2.21164 24.1563 3.53693L24.1785 3.64193L24.2121 3.80064L24.2345 3.90721L24.2457 3.96067L24.2682 4.06784L24.2794 4.12155L24.3017 4.22909L24.3343 4.38634C24.5244 5.30407 24.7058 6.22445 24.8143 6.88438H24.865C24.9689 6.2924 25.1199 5.53483 25.2809 4.76133L25.3231 4.55929C25.3443 4.45807 25.3656 4.35702 25.3871 4.25612L25.4202 4.09959C25.6388 3.07455 25.864 2.05092 26.0957 1.02876L26.0993 1.01247L26.1051 0.98712H28.0413L25.8013 8.97255V12.807H23.8904V8.9851H23.8777L21.6631 0.987L23.5993 0.98712ZM30.2306 5.35307C29.9648 5.35307 29.7877 5.49234 29.6739 5.78345C29.5601 6.07455 29.5094 6.51736 29.5094 7.13759V9.83307C29.5094 10.4658 29.5599 10.934 29.6612 11.2126C29.7625 11.4909 29.9523 11.6301 30.2306 11.6301C30.4964 11.6301 30.6862 11.4909 30.8001 11.2126C30.9141 10.934 30.9646 10.4658 30.9646 9.83307V7.13747C30.9646 6.51736 30.9139 6.06176 30.8001 5.78333C30.6862 5.49234 30.4964 5.35307 30.2306 5.35307ZM52.5543 5.60628C52.4001 5.74869 52.2904 5.92429 52.2251 6.14383L52.2127 6.18836V11.0985C52.3696 11.3643 52.5923 11.5414 52.9846 11.5541C53.187 11.5541 53.3516 11.4782 53.4782 11.3264C53.6047 11.1745 53.6932 10.9214 53.7438 10.567C53.7925 10.2269 53.8178 9.75844 53.8198 9.16167V7.96009C53.8198 7.27674 53.7944 6.7579 53.7565 6.39088C53.7058 6.02386 53.6427 5.7581 53.5288 5.60628C53.3085 5.28983 52.8328 5.29369 52.5543 5.60628ZM59.249 5.31517C59.0338 5.3278 58.8818 5.39109 58.7933 5.50502C58.6921 5.6315 58.6288 5.82134 58.5909 6.09978C58.5536 6.37253 58.5408 7.32598 58.5402 7.36412V7.98543H59.9576V7.4375V7.448C59.9567 7.63953 59.9527 7.33684 59.944 6.96524L59.9428 6.91528C59.9349 6.58869 59.9233 6.22457 59.907 6.09978C59.869 5.80867 59.8056 5.60615 59.7045 5.49234C59.6032 5.37841 59.4514 5.31517 59.2489 5.31517" fill="white"/>
</g>
<defs>
<clipPath id="clip0_11022_106">
<rect width="61.7931" height="14" fill="white"/>
</clipPath>
</defs>
</svg>
