<?xml version="1.0" encoding="utf-8"?><svg width="50" height="11.29" fill="none" xmlns="http://www.w3.org/2000/svg" viewBox="0 0 62 14"><g clip-path="url(#da)"><path d="M19.297 2.164A2.48 2.48 0 0 0 17.551.418C16.019 0 9.856 0 9.856 0S3.693.013 2.162.43A2.48 2.48 0 0 0 .416 2.177c-.464 2.72-.643 6.866.012 9.478a2.48 2.48 0 0 0 1.747 1.747c1.53.417 7.694.417 7.694.417s6.163 0 7.694-.417a2.48 2.48 0 0 0 1.747-1.747c.488-2.724.639-6.868-.013-9.49" fill="red"/><path d="m7.895 9.871 5.112-2.961-5.112-2.962v5.923ZM59.287 4.012c.67 0 1.177.126 1.531.367.354.24.608.62.76 1.139.151.519.214 1.227.214 2.138v1.481H58.54v.456l.05 1.252c.039.279.102.481.203.608.102.126.266.19.481.19.291 0 .494-.114.595-.342.114-.228.164-.607.177-1.126l1.683.101c.013.076.013.177.013.304 0 .797-.215 1.392-.658 1.784-.443.392-1.05.595-1.848.595-.962 0-1.632-.304-2.012-.899-.38-.595-.582-1.531-.582-2.784V7.745c.043-2.151.421-3.727 2.645-3.733Zm-23.4.164v6.34c0 .38.038.659.127.823.18.352.645.262.899.089.146-.1.263-.234.341-.393V4.176h1.937v8.643h-1.52l-.164-1.063h-.038c-.417.798-1.037 1.203-1.86 1.203-1.266-.003-1.576-.916-1.65-1.842l-.004-.065c-.01-.14-.015-.281-.016-.422V4.176h1.949Zm9.986 0v6.34c0 .38.037.659.126.823.18.352.645.262.898.089.147-.1.264-.234.342-.393V4.176h1.936v8.643h-1.518l-.165-1.063h-.038c-.417.798-1.038 1.203-1.86 1.203-1.266-.003-1.576-.916-1.65-1.842l-.004-.065c-.01-.14-.015-.281-.016-.422V4.176h1.949Zm-15.604-.164c.632 0 1.151.126 1.53.392.38.266.672.67.849 1.228.177.556.265 1.303.265 2.227v1.253c0 .924-.088 1.658-.265 2.214-.177.557-.456.962-.848 1.228-.392.253-.924.392-1.582.392-.683.013-1.215-.126-1.607-.38-.392-.265-.671-.67-.835-1.227-.165-.557-.24-1.29-.24-2.215V7.871c0-.924.088-1.683.278-2.24.19-.569.48-.974.885-1.227.405-.253.924-.392 1.57-.392M52.213.544V5.1h.012c.178-.329.405-.595.722-.797a1.786 1.786 0 0 1 1-.304c.468 0 .822.127 1.088.367.266.253.455.645.57 1.19.11.527.172 1.256.176 2.175v1.457c0 1.278-.164 2.227-.468 2.834-.316.608-.797.912-1.455.912-.367 0-.696-.089-1-.253a1.774 1.774 0 0 1-.646-.651l-.025-.046h-.038l-.202.823H50.34V.544h1.873Zm-7.745.443v1.57h-1.924v10.262h-1.898V2.556H38.71V.987h5.758Zm-20.869 0 .002.005c.018.082.274 1.22.555 2.545l.023.105.033.159.023.106.01.054.023.107.011.054.023.107.032.157c.19.918.372 1.838.48 2.498h.051c.104-.592.255-1.35.416-2.123l.042-.202.064-.303.033-.156c.219-1.025.444-2.05.676-3.071l.003-.017.006-.025h1.936l-2.24 7.986v3.834h-1.91V8.985h-.013L21.663.987H23.6Zm6.632 4.366c-.266 0-.443.14-.557.43-.114.292-.165.734-.165 1.355v2.695c0 .633.05 1.101.152 1.38.101.278.291.417.57.417.265 0 .455-.14.57-.417.113-.279.164-.747.164-1.38V7.137c0-.62-.051-1.075-.165-1.354-.114-.29-.304-.43-.57-.43Zm22.323.253a1.162 1.162 0 0 0-.329.538l-.012.044v4.91c.157.266.38.443.772.456a.613.613 0 0 0 .493-.228c.127-.152.215-.405.266-.759.048-.34.074-.809.076-1.405V7.96c0-.683-.026-1.202-.063-1.57-.051-.366-.114-.632-.228-.784-.22-.316-.696-.312-.975 0Zm6.695-.29c-.215.012-.367.075-.456.189-.1.127-.164.316-.202.595-.037.273-.05 1.226-.05 1.264v.621h1.417v-.548.011c-.001.192-.005-.111-.014-.483l-.001-.05c-.008-.326-.02-.69-.036-.815-.038-.291-.101-.494-.202-.608-.102-.114-.254-.177-.456-.177" fill="#fff"/></g><defs><clipPath id="da"><path fill="#fff" d="M0 0h61.793v14H0z"/></clipPath></defs></svg>